<link href="css/main.css" rel="stylesheet">
<svg version="1.1" width="300" height="300" viewBox="0 0 300 300" fill="none" xmlns="http://www.w3.org/2000/svg"
     xmlns:xlink="http://www.w3.org/1999/xlink" xmlns="http://www.w3.org/1999/html">

    <g id="self">
        <circle id="center" fill="#ffffff" cx="150" cy="150" r="60"></circle>
        <circle id="dot" fill="#ffffff" cx="229" cy="66" r="27.5">
            <animateTransform attributeName='transform' type='rotate' attributeType='XML' begin='0s' end='1s' dur='1s' from='0 150 150' to='360 150 150' />
            <animateTransform attributeName='transform' type='rotate' attributeType='XML' begin='1s' dur='2s' from='0 150 150' to='360 150 150' repeatCount="indefinite"  />
            <!--<animateTransform attributeName='transform' type='rotate' attributeType='XML' begin='6s' end='8s' dur='2s' from='360 150 150' to='-160 150 150' />-->
        </circle>
        <path id="gear" fill="#ffffff" d="M154,296.8v-59.3c-5,0.1-3.1,0.1-4.4,0.1c-48,0-87.2-39.6-87.2-88.5c0-48.9,41.1-86,87.4-88.5
                c1.3-0.1-0.7,0,4.3,0.1v-59C141,2,126.8,4,114.3,7.3c0.9,2.7,1.2,5.6,1.2,8.6c0,14.3-11.7,25.9-26,25.9c-9.6,0-18.1-5.3-22.6-13.1
                c-9,6-18,12.9-25.4,20.6c6.1,4.7,10.8,12.2,10.8,20.5c0,14.3-11.6,25.9-25.9,25.9c-4.9,0-9.5-1.4-13.4-3.7
                c-4.3,9.7-7.6,20.5-9.8,31.1c13,1.4,23.1,11.7,23.1,25c0,13.7-10.6,24.9-24.1,25.8c1.8,11,4.9,21.7,9.1,31.8c3.6-1.9,7.8-3,12.2-3
                c14.3,0,25.9,11.6,25.9,25.9c0,8.4-4,15.8-10.2,20.6c7.6,8.2,16.1,15.6,25.3,22c4.2-8.7,13-14.6,23.3-14.6
                c14.3,0,31.4,9.5,25.4,35.4C126.5,295.8,141,296.5,154,296.8z">
            <animateTransform attributeName='transform' type='rotate' attributeType='XML' begin='1s' dur='2s' from='0 150 150' to='360 150 150' repeatCount="indefinite"  />
        </path>
        <path id="arc" fill="#ffffff" d="M227.9,106.6c7.7,13.1,12.9,28.3,12.9,44.5c0,43.7-31.7,79.7-72.7,86.7v34.4c62-13.1,111.1-60.2,111-127.4
                c0-19.4-4.7-37.8-12.4-54.2L227.9,106.6z">
            <animateTransform attributeName='transform' type='rotate' attributeType='XML' begin='1s' dur='2s' from='0 150 150' to='360 150 150' repeatCount="indefinite"  />
        </path>
    </g>

</svg>