<?xml version="1.0" encoding="utf-8"?>
<!-- Generator: Adobe Illustrator 17.1.0, SVG Export Plug-In . SVG Version: 6.00 Build 0)  -->
<!DOCTYPE svg PUBLIC "-//W3C//DTD SVG 1.1//EN" "http://www.w3.org/Graphics/SVG/1.1/DTD/svg11.dtd">
<svg version="1.1" id="Слой_1" xmlns="http://www.w3.org/2000/svg" xmlns:xlink="http://www.w3.org/1999/xlink" x="0px" y="0px"
	 viewBox="0 0 2000 1090.1" enable-background="new 0 0 2000 1090.1" xml:space="preserve">
<g>
	<path d="M582.1,207.4C582.1,207.4,582.2,207.4,582.1,207.4c0.1,0,0.1,0,0.2,0c0.1-0.1,0.2-0.3,0.3-0.4
		C582.4,207.1,582.2,207.3,582.1,207.4z"/>
	<path d="M582.1,207.4C581.9,207.4,581.8,207.6,582.1,207.4L582.1,207.4z"/>
	<path d="M1997,218.9c-3.6,0-6.7,0-9.8,0c-1.2,1.2-2.3,2.3-3.4,3.4c0,3.9,0,7.8,0,11.7c0,0.3-0.5,0.6-0.9,1c-0.9,0-2,0-3.5,0
		c0-4.4,0-8.6,0-12.4c-1.5-1.5-2.6-2.6-3.8-3.8c-0.7,0-1.5,0-2.2,0c-0.9-0.8-1.7-1.6-2.6-2.4c-3.2,0-6.3,0-9.3,0
		c-0.9,0.8-1.8,1.6-2.5,2.3c-2.7,0.5-5.6-1.1-7.9,1c-0.1,1.9-0.2,3.8-0.4,6.2c-1.7-1.1-2.8-1.8-4-2.5c-2,0-3.9,0-6.1,0
		c-0.7,0.6-1.6,1.4-2.7,2.2c-2.1,0-4.4,0-6.5,0c-2.1,0.9-3.2,4.6-6.1,1.6c-0.2-1.7-0.4-3.6-0.4-3.8c-2.5-3.2-4.1-5.4-5.3-6.8
		c-4.1,0-7.2,0-10.1,0c-1.6,1.6-3,3-4.4,4.4c-2.2,0-4.6,0-6.7,0c-2.6-1.5-5.2-3-8-4.6c-3.1,0.2-6.5-0.4-9.7,0.4
		c-0.6,1.9,0,3.7-1.3,4.1c-3,1.1-3.7-1.7-4.7-1.9c-5.5,0-10.1,0-14.6,0c-1.6,1.6-3,3-4.5,4.5c-2.2,0-4.5,0.1-6.8,0
		c-2.7-0.1-5.4,0.7-7.9-0.6c-0.9-0.9-1.7-1.7-3-3c0-6.9,0-14.3,0-21.4c-3.8-1.7-1.3-5.3-3.3-8c-1.8,0-4.1-0.2-6.4,0
		c-2.2,0.2-4.7-1-6.7,1.1c0,4.7,0,9.4,0,14.2c-1.1,1-2.2,2-3.6,3.2c-13.3,0-26.9,0-40.5,0c-0.6-1.6-1.1-3-1.5-4.4
		c-2.5,0.8-0.7,3.7-2.9,4.7c-2.4-4.3,0-9.2-1.5-13.6c-1.1-1-2.2-2.1-3-2.8c-3.5,0-6.6,0-8.8,0c-2.6,2.3-4.7,4-6.6,5.7
		c0,5.8,0,11.3,0,16.6c-1.2,1.3-2.3,2.4-3.3,3.4c-3.2,2.1-4.7-5.5-8.3-1.1c-0.3,4.1,0.2,8.3-0.3,12c-1.3,1.3-2.1,2.1-3,3
		c-2.6,0.6-5.2,0.7-8.7-0.3c1.4-3.3-1.8-4.3-3.4-6.4c-3.1,0-6.2,0-9.1,0c-1.5-0.7-2-2.7-3.9-2.4c-1.9-0.3-2.3,1.9-4.1,2.4
		c-9,0-18.4,0-27.8,0c-1.6,3.8-5.9,1-8,3.4c0,5.5,0,11,0,16.5c0,0.3-0.5,0.5-1,1c-1.3,0.6-2.7,0.5-3.6-1.1c-0.1-1.1,0.3-2.4-1-3.2
		c-1.8-0.2-3.7-0.4-5.2-0.5c-0.9-0.9-1.4-1.4-2-2c-3.9,0-7.8,0-11.7,0c-0.8,0.7-1.6,1.5-2.2,2c-3-1.6-5.9-3.1-8.3-4.3
		c-2.7,2.7-5.2,5.2-7,7c-3.9-0.3-6.7,0.7-9.6-1c0-9.5,0-19.2,0-29.6c-4.6,0-8.8,0-12.9,0c-1-0.9-1.8-1.6-2.7-2.4c-9.4,0-18.8,0-28,0
		c-1.3-1.2-2.4-2.3-3.5-3.4c0-13.8,0-27.5,0-41.2c0-0.7-0.5-1.3-0.9-2.2c-2.6-0.1-5.2-0.2-7.6-0.3c-1.3-1.4-2.4-2.5-3.3-3.5
		c0-7.7,0-15.2,0-22.6c0-0.4-0.1-0.7-0.3-1c-0.2-0.3-0.5-0.6-0.9-0.9c-2.3,0-4.7,0.1-7,0c-2.6-0.2-5.4,0.8-8.3-0.9c0-4,0-8.2,0-9.7
		c-2.3-7.1-6.4-10.2-7.9-14.9c-3.4,0-6.8,0-10.3,0c-4.1,0.7-1.8,5.2-4.2,6.8c-1.3-2.7-2.2-5.6-4.8-6.9c-1.8,0-3.3,0-4.5,0
		c-1.4,1.3-2.5,2.3-3.6,3.3c-0.1,1.3,0.4,2.6-1.2,3.5c-0.8-0.1-1.8-0.1-2.6-0.2c-2.1-2,0.5-5-2-6.7c-9.3,0-18.7,0-28.2,0
		c-1.6,1.5-3.2,3.1-4.9,4.7c-7,0-14.1,0-21,0c-1,0.9-1.9,1.6-2.8,2.4c-3.9,0-7.8,0-11.2,0c-1.5,1.3-2.6,2.3-3.7,3.4
		c0,5.6,0,11.1,0,16.6c0,0.3-0.5,0.6-0.9,1c-1.1,0-2.3,0-2.5,0c-3.7-2.4-6.3-4.1-8.5-5.5c0-4.8,0-8.7,0-12.3c-0.8-0.8-1.4-1.4-2-2
		c0-1.5,0-3,0-4.4c-1.8-2.8-4.3-4.2-7.2-5.3c0-1.5,0-3.1,0-4.4c-2.1-2.2-3.9-4.1-5.8-6.1c-9.1,0-18.1,0-27.2,0
		c-0.7,0-1.3,0.5-2.1,0.9c0,1.5,0,3,0,4.2c-2,4-7.2,5.3-7.3,10.3c-3.1,3.1-6.1,6.1-9.2,9.2c0,1.5,0,3,0,4.6
		c-0.8,0.9-1.6,1.7-2.4,2.6c0,14.5,0,29,0,43.5c0,0.4,0.1,0.8,0,1.2c-0.1,0.3-0.5,0.6-1.2,1.3c-6.1,0-12.7,0-18.9,0
		c-1.4,1.5-2.5,2.6-3.7,3.9c0,12.5,0,25,0,37.5c0,0.3-0.5,0.6-0.9,0.9c-1-1.1-2.1-2.3-3.6-4c0-17.6,0-35.9,0-54.5
		c-4-1-8,0.6-11.6-1.2c0-3.3,0-6.4,0-9.5c-2.2-1.4-2.2-3.9-3.3-5.8c-2.6-0.5-5.3-0.7-7.8,0.1c-2.6,1.5-2.5,4.6-4.3,6.6
		c-1.1-1.1-2.1-2.3-3.3-3.6c-0.1-2.4-0.3-5-0.5-8.1c-10,0-19.7,0-28.8,0c-1.6-1.6-2.8-2.6-3.9-3.7c0-13.4,0-26.8,0-40
		c-1.7-3.5-6-3.2-8.2-5.9c-1.6,0-3.1,0-4.7,0c-0.9-0.8-1.7-1.6-2.5-2.3c-1.7,0-3.2,0-5,0c-1.5,2.9-5.3,2.4-7.5,4.8
		c-8.4,0-17,0-25.3,0c-2,1.6-3.1,3.9-5.5,4.5c-0.7-0.2-1.4-0.5-2.6-0.9c0-2.1,0-4.4,0-6.7c0-20,0-40,0-60c0-1.8,0.8-3.9-1.1-5.4
		c-3.9,0-7.8,0-12.5,0c-1.1-1.4-2.6-3.3-3.9-5c-5.9,0-11.4,0-16.8,0c-0.3,0-0.6-0.5-0.8-0.8c-1-1.7,1.6-4.5-1.5-5.7
		c-1.7,1.9-0.5,3.9-1,5.7c-1.5,1.9-4.7,0.7-5.8,3.7c-2.5,0-5.1,0-7.4,0c-0.9,1-1.5,1.5-2,2.1c-2,0-4-0.1-5.9,0
		c-2.2,0.2-4.6-0.8-7.1,1.1c0,18,0,36.4,0,54.3c-1,1-1.5,1.5-2.2,2.2c-0.3,6.5,0.1,13-0.2,19.8c-1.5,0.1-2.6,0.2-3.5,0.2
		c-1.6-1.6-3-3-4.3-4.3c-1.9-0.2-3.7-0.4-5.4-0.6c-1.2-1.3-2.2-2.4-3.5-3.8c0-15.6,0-31.2,0-46.8c0-0.3-0.5-0.5-0.8-0.8
		c-0.3,0.3-0.8,0.6-0.8,0.8c-0.2,16-0.4,31.9-0.5,48.3c-3,0.2-5.6,0.3-8.1,0.4c-0.9,0.8-1.8,1.5-2.9,2.5c-4.5,0-9.1,0-13.8,0
		c-0.3,0-0.6,0.5-0.8,0.8c-0.2,1.1,0.5,2.4-1.6,3.6c-4.3,0-9.3,0-13.9,0c-0.6,0.7-1,1-1,1.3c0,18.8,0,37.6,0,56.3
		c-1.2,1.2-2.3,2.3-3.5,3.5c-2.2,0-4.6-0.1-6.9,0c-2.6,0.2-5.4-0.8-8.3,0.9c0,5.6,0,11.4,0,16.9c-2.5,1.7-4.9,0.9-7.2,1
		c-2.3,0.1-4.7,0.2-7.1,0c-2.2-0.2-4.6,0.8-7.1-1.1c0-19.6,0-39.5,0-58.9c-1-1-1.5-1.5-2.1-2.1c-0.1-2.6-0.2-5.3-0.3-7.4
		c-1.1-1.1-1.6-1.6-2.2-2.2c0-1.6,0-3.1,0-4.7c-0.8-0.9-1.6-1.7-2.4-2.6c0-1.5,0-3.1,0-4.5c-0.9-1-1.6-1.8-2.2-2.6
		c-0.5-2.8,1.3-5.8-1.2-7.9c-2.2-1.9,0-5.1-1.7-6.3c-3-2-0.9-5.2-2.4-7.3c-0.3-0.2-0.6-0.6-0.9-0.6c-7.5,0-14.9-0.1-22.4,0
		c-0.6,0-1.3,0.6-2,1c0,1.5,0,3.1,0,4.6c-0.8,0.9-1.6,1.7-2.4,2.6c0,1.5,0,3.1,0,4.6c-0.8,0.9-1.6,1.7-2.4,2.6c0,2.3,0,4.7,0,7
		c-4,1.8-0.8,6.7-4.1,9c-1,0.7-0.6,3.5-0.8,5.3c-1.2,1.1-2.3,2.2-2.8,2.7c-2.5,1-4.6-0.4-6.2,1.6c0,1.5,0,3,0,4.6
		c-0.8,0.9-1.6,1.7-2.4,2.6c0,2.3,0,4.7,0,6.9c-0.8,0.9-1.6,1.7-2.4,2.6c0,2.3,0,4.7,0,6.8c-0.9,1-1.6,1.9-2.2,2.6
		c-0.5,2.8,1.3,5.8-1.2,8c-2.8,2.5,0,6-1.6,8.7c-3,0.7-0.7,4.6-3,5.3c-6.7,0-12.9,0-18.9,0c-1.5-0.9-1.1-2.2-1.2-3.3
		c-2.9-3.4-7-5.9-8.2-10.7c-18.8,0-37.6,0-56.3,0c-2.9,2.8-5.7,5.5-8.4,8.2c0.5,3-2,4-3.4,5.8c-1.2-2.2-2.4-4.3-3.9-7
		c0-13.6,0-27.6,0-41.5c-1.3-1.3-2.5-2.3-3.6-3.4c-2.4,0-4.7,0-6.9,0c-0.7-0.7-1.2-1.3-1.8-1.8c-0.2-0.1-0.5,0-0.8,0
		c-1.4,1.4-2.6,3.5-4.2,4c-2,0.5-3.5,1.2-4.7,2.6c-4,0-7.9,0-11.7,0c-0.9-0.8-1.7-1.5-2.6-2.3c-1.6,3.8-5.9,1.1-8,3.4
		c0,15.7,0,31.4,0,47c-0.8,0.9-1.6,1.7-2.5,2.7c0,7,0.1,14-0.1,21.1c0,1-1,1.1-2.2-0.2c0-1.2,0-3.1,0-5c0-15.3,0-30.6,0-45.9
		c0-0.6-0.7-1.3-1.1-2c-0.7,0-1.5,0-2.3,0c-0.8,0.7-1.6,1.5-2.5,2.3c-4.7,0-9.4,0-14.1,0c-1.7-2.9-5.5-2.3-7.5-4.7
		c-3.4-0.4-7,0.8-10.1-0.9c0-37.1,0-74,0-110.8c-0.8-0.9-1.6-1.7-2.4-2.5c0-2.8,0.2-5.6,0-8.3c-0.3-3,1-6.2-0.9-9.2
		c-10.6,0-21.1,0-31.7,0c-0.7,0-1.4,0.4-2.1,0.6c-0.6,0.6-1.1,1.1-1.7,1.7c-4.7,0-9.4,0-14.2,0c-1,1.1-2,2.2-3.6,4
		c0,34.1,0,68.9,0,104.2c-6.9,0.2-13.5,0-19.9,0.1c-1.3,1.3-2.6,2.2-3.4,3.5c-0.5,0.8,0.4,2.4-1,3.2c-2.6,0.5-5.2,0.7-8-0.2
		c-1.2-2.9-0.1-6.1-0.5-9.1c-0.4-3,1-6.2-0.9-9.2c-11,0-22,0-32.9,0c-0.3,0-0.6,0.4-1.3,0.9c0,27.4,0,55.2,0,82
		c-1.6,1.9-2.6,3.1-3.6,4.2c-1-0.9-1.9-1.7-2.5-2.3c-10.4,0-20.6,0-30.7,0c-1.6,2.5-1.7,6-4.9,6.9c-1.8,0.1-3.3,0.2-5.3,0.3
		c-0.4,6,0.1,11.8-0.3,17.6c-1.1,1.1-2.2,2.2-3.3,3.3c-1.7-1.6-3.3-3.2-4.7-4.4c-5.1,0-9.7,0-14.4,0c-1.4,2.1-0.3,4-2.6,4.1
		c-0.5-1.4-1.1-2.7-1.6-4.1c-2.7,0-5.3,0-7.7,0c-1.6,1.6-3,3-4.4,4.4c-0.8,0-1.5,0-2.5,0c-0.7,1.5-1.5,3.1-2.2,4.8
		c-2.7-2.7,0.1-6.2-2-9.1c-0.9-0.8-2.1-1.9-2.8-2.5c-3.7,0-6.8,0-9.6,0c-1.6,1.6-3,3-4.5,4.5c-4.9,0-10,0-15.1,0
		c-0.7,0-1.4-0.4-2.1-0.7c-0.6-0.6-1.1-1.1-1.7-1.7c-6.3,0-12.5,0-18.8,0c-0.9,0.8-1.7,1.6-2.4,2.3c-2.5,0-4.8,0-7.1,0
		c-3-3.7-7-5.6-11.4-7c-0.8,0.7-1.7,1.5-2.6,2.3c-4.5,0-9.2,0-13.9,0c-0.9,0.8-1.7,1.6-2.6,2.4c-1.5,0-3.1,0-4.7,0
		c-1.1-2.5-4-1.8-6.1-3.7c0-3,0-6.4,0-9.6c-1.9-1.2-3.3-1-4.5,0.4c0,3.1,0,6.2,0,9.4c0,0.3-0.5,0.6-0.9,1c-3.3,0-6.7,0-10.7,0
		c-0.4-3.8,0.4-7.7-0.6-11.5c-1.5,0.1-2.6,0.2-3.5,0.3c-0.4,0.6-0.7,0.9-0.7,1.2c0,8.2,0,16.5,0,24.7c0,0.4-0.1,0.7-0.2,1.1
		c-0.6,0.6-1.1,1.1-1.8,1.8c-0.2,1.7-0.4,3.5-0.6,5.3c-2.1,1-4.4,1.3-5.8,3.1c-4.8,0-9.4,0-13.9,0c-1-0.9-1.9-1.6-2.6-2.3
		c-2.2,0-4.1,0.1-6.1,0c-1.9-0.1-2.6-2.8-4.9-2.4c-1.8,0.3-3.8,0.1-5.2,0.1c-1-1-1.6-1.6-2.4-2.4c-11.5,0-23.2,0-35,0
		c-0.3,0-0.6,0.4-1.3,0.8c-0.1,2.4-0.3,5-0.4,7.4c-0.9,1-1.6,1.9-2.4,2.9c0,4.7,0,9.3,0,13.9c-2.6,1.1-5.3,1.6-6.8,4.4
		c0,1.4,0,3,0,4.4c-1.3,1.3-2.1,3-4.6,3.5c-0.4-5.9,0.1-11.7-0.3-18.5c-1.3-0.9-3.2-2.2-4.3-2.9c-0.3-5-0.5-8.9-0.7-12.8
		c0-0.2-0.5-0.5-0.9-0.7c-2.3,3.5,0,7.6-1.9,11.8c-3.1-0.2-6.5,0.2-9.9-0.2c-0.6-0.6-1.1-1.1-2.2-2.2c-5.7,0-11.9,0-18.2,0.1
		c-0.6,0-1.2,0.7-1.8,1.1c-0.2,1.1,0.5,2.4-0.9,3.2c-2.6,0.5-5.2,0.7-7.8-0.2c-1.4-1.4-2.8-2.8-4.2-4.2c-7,0-14.1,0-21.1,0
		c-0.9-0.8-1.7-1.6-2.5-2.3c-14.2,0-28.3,0-42.3,0c-0.9,0.8-1.8,1.6-2.5,2.2c-2.6,0-4.9,0-7.1,0c-1.5-1.5-2.9-2.9-4.3-4.3
		c-3.4,0-6.8,0-10.3,0c-0.8,1.8-2.1,2.3-4,2.1c-0.8-0.7-1.6-1.5-2.5-2.3c-10.1,0-20.3,0-30.5,0c-0.9-0.8-1.7-1.6-2.5-2.3
		c-1.7,0-3.2,0-4.7,0c-1.8,2.2-1.6,5.8-3.9,6.3c-3.2-3.1-5.9-5.9-9.2-9.2c0-8.5,0-17.8,0-26.8c-2.3-3.3-6.1-3.5-8.4-5.5
		c-20.6,0-40.9,0-61.1,0c-1.2,1.3-2.3,2.4-3.3,3.4c0,13.9,0,27.6,0,41.4c0,0.4-0.1,0.8-0.2,1.1c-0.2,0.3-0.5,0.6-0.9,1
		c-20.6,0-41.4,0-62.2,0c-0.4,0-0.8-0.1-1.2,0c-0.3,0.1-0.6,0.4-1.1,0.8c-0.1,0.9-0.2,2-0.2,3.2c0,15.1,0,30.3,0,46.1h0v800h2000
		V293.2c0-1,0-2.1,0-3.1c0-22.6,0-45.3,0-67.4C1998.6,221,1997.7,219.8,1997,218.9z"/>
</g>
</svg>
